<svg id="Layer_1" data-name="Layer 1" xmlns="http://www.w3.org/2000/svg" viewBox="0 0 633.04 828.2"><defs><style>.cls-1{fill:#a6315b;}.cls-2{fill:#fccc1d;}</style></defs><title>Rcoin</title><path class="cls-1" d="M888.11,462.91c23.72-144-55.59-236.94-219.61-237.56L647.13,352.79c66.23,8.32,92.89,46.22,82.6,110.12C718,535,669.36,571.22,580.94,571.22H476.53l35.23-210,22.79-135.85H379.94L259.2,952.62H413l43-257.82H567.8L663,952.62H832.71L725.11,669.94C813.89,634.43,871.78,562.34,888.11,462.91Z" transform="translate(-259.2 -174.88)"/><polygon class="cls-2" points="313.13 0 250.63 372.64 325.71 372.64 388.2 0 313.13 0"/><polygon class="cls-2" points="249.31 828.2 297.04 543.61 221.96 543.61 174.24 828.2 249.31 828.2"/></svg>