<svg xmlns="http://www.w3.org/2000/svg" width="192" height="60" fill="none" viewBox="0 0 192 60">
  <rect width="190.523" height="58.523" x="0.738" y="0.738" fill="#000" rx="8.123" />
  <path fill="#fff" fillRule="evenodd"
    d="M38.059 30.858a7.309 7.309 0 013.48-6.133 7.481 7.481 0 00-5.895-3.186c-2.48-.26-4.884 1.484-6.148 1.484-1.288 0-3.234-1.459-5.33-1.415a7.85 7.85 0 00-6.605 4.029c-2.857 4.945-.726 12.213 2.01 16.21 1.369 1.958 2.969 4.144 5.062 4.067 2.049-.085 2.814-1.307 5.287-1.307 2.45 0 3.167 1.307 5.303 1.257 2.199-.035 3.584-1.966 4.904-3.942a16.188 16.188 0 002.243-4.567 7.063 7.063 0 01-4.311-6.497zM34.024 18.91a7.196 7.196 0 001.646-5.156 7.322 7.322 0 00-4.737 2.451 6.848 6.848 0 00-1.69 4.965 6.054 6.054 0 004.781-2.26z"
    clipRule="evenodd" />
  <path fill="#fff"
    d="M61.377 20.06v-7.364h2.126c.585 0 1.077.084 1.476.252.398.16.722.399.97.718.257.31.439.691.545 1.143.115.443.173.948.173 1.516 0 .584-.062 1.085-.186 1.502a3.528 3.528 0 01-.452 1.023 2.353 2.353 0 01-.638.651 3.18 3.18 0 01-.705.373c-.239.08-.465.133-.678.16-.212.017-.39.026-.531.026h-2.1zm-1.263-8.428v9.491h3.256c.79 0 1.471-.11 2.047-.332a3.604 3.604 0 001.423-.957c.372-.426.647-.944.824-1.555.177-.62.266-1.33.266-2.127 0-1.525-.395-2.659-1.183-3.403-.789-.745-1.915-1.117-3.377-1.117h-3.256zM70.377 17.694c0-.417.053-.785.16-1.104.114-.328.27-.602.464-.824.195-.221.421-.39.678-.505a2.084 2.084 0 011.662 0c.266.115.496.284.691.505.195.222.346.496.452.824.115.32.173.687.173 1.104 0 .416-.058.788-.173 1.116-.106.32-.257.59-.452.811a2.013 2.013 0 01-.691.492 2.084 2.084 0 01-1.662 0 2.049 2.049 0 01-.678-.492 2.495 2.495 0 01-.465-.81c-.106-.329-.16-.7-.16-1.117zm-1.197 0c0 .505.071.974.213 1.409.142.434.355.815.638 1.143.284.319.634.571 1.05.757.417.178.895.266 1.436.266.55 0 1.028-.088 1.435-.266a3.045 3.045 0 001.05-.757c.284-.328.497-.71.639-1.143.141-.435.212-.904.212-1.41 0-.505-.07-.974-.212-1.408a3.132 3.132 0 00-.639-1.143 2.968 2.968 0 00-1.05-.771c-.407-.187-.886-.28-1.435-.28-.54 0-1.02.093-1.436.28a2.968 2.968 0 00-1.05.77c-.283.32-.496.7-.638 1.144a4.514 4.514 0 00-.213 1.409zM84.257 21.123l2.193-6.872h-1.17l-1.541 5.623h-.027l-1.436-5.623H81.04l-1.382 5.623h-.027l-1.555-5.623h-1.25l2.207 6.872h1.223l1.382-5.463h.027l1.396 5.463h1.196zM87.79 14.25v6.873h1.13v-3.881c0-.31.04-.594.12-.851a2.02 2.02 0 01.385-.691c.168-.195.377-.346.625-.452.257-.106.558-.16.904-.16.434 0 .775.124 1.023.373.248.248.372.584.372 1.01v4.652h1.13v-4.52c0-.372-.04-.708-.12-1.01-.07-.31-.199-.576-.385-.797a1.858 1.858 0 00-.731-.518c-.301-.125-.678-.187-1.13-.187-1.019 0-1.763.417-2.233 1.25h-.026v-1.09H87.79zM95.508 11.632v9.491h1.13v-9.49h-1.13zM99.479 17.694c0-.417.053-.785.16-1.104.114-.328.27-.602.464-.824.195-.221.421-.39.678-.505a2.085 2.085 0 011.662 0c.266.115.496.284.691.505.195.222.346.496.452.824.115.32.173.687.173 1.104 0 .416-.058.788-.173 1.116-.106.32-.257.59-.452.811a2.01 2.01 0 01-.691.492 2.085 2.085 0 01-1.662 0 2.05 2.05 0 01-.678-.492 2.5 2.5 0 01-.465-.81c-.106-.329-.16-.7-.16-1.117zm-1.197 0c0 .505.071.974.213 1.409.142.434.355.815.638 1.143.284.319.634.571 1.05.757.417.178.895.266 1.436.266.549 0 1.028-.088 1.435-.266a3.034 3.034 0 001.05-.757c.284-.328.497-.71.638-1.143.142-.435.213-.904.213-1.41 0-.505-.071-.974-.213-1.408a3.116 3.116 0 00-.638-1.143 2.957 2.957 0 00-1.05-.771c-.407-.187-.886-.28-1.435-.28-.541 0-1.019.093-1.436.28a2.968 2.968 0 00-1.05.77c-.283.32-.496.7-.638 1.144a4.514 4.514 0 00-.213 1.409zM112.641 21.096c-.195.116-.465.173-.811.173-.292 0-.527-.08-.704-.239-.169-.168-.253-.439-.253-.81-.31.371-.673.642-1.09.81-.408.16-.851.24-1.329.24-.31 0-.607-.036-.891-.107a2.068 2.068 0 01-.718-.332 1.676 1.676 0 01-.491-.585 2.088 2.088 0 01-.173-.89c0-.39.066-.71.199-.958s.306-.447.519-.598c.221-.16.469-.28.744-.359.284-.08.572-.146.864-.2.31-.061.603-.106.877-.132.284-.036.532-.08.745-.133.212-.062.381-.146.505-.253.124-.115.186-.279.186-.491 0-.249-.049-.448-.146-.599a.905.905 0 00-.359-.345 1.402 1.402 0 00-.492-.16 3.582 3.582 0 00-.532-.04c-.478 0-.877.093-1.196.28-.319.177-.492.518-.518 1.023h-1.13c.017-.425.106-.784.266-1.077.159-.292.372-.527.638-.704.265-.186.567-.32.903-.399.346-.08.714-.12 1.104-.12.31 0 .616.023.917.067.31.044.589.137.837.279.248.133.448.323.598.572.151.248.226.571.226.97v3.536c0 .265.014.46.04.584.036.125.142.187.319.187.098 0 .213-.023.346-.067v.877zm-1.834-3.522a1.476 1.476 0 01-.559.24c-.23.044-.474.083-.731.119-.248.026-.5.062-.757.106a2.64 2.64 0 00-.692.186 1.29 1.29 0 00-.505.386c-.124.16-.186.38-.186.664 0 .187.036.346.107.479.079.124.177.226.292.306.124.08.266.137.425.172.16.036.328.054.505.054.373 0 .692-.05.957-.147.266-.106.483-.234.652-.385.168-.16.292-.328.372-.505.08-.186.12-.36.12-.519v-1.156zM114.782 17.747c0-.337.036-.665.107-.984.071-.319.186-.602.345-.85a1.81 1.81 0 01.638-.599c.266-.15.59-.226.971-.226.39 0 .722.076.997.226.274.142.496.333.664.572.178.24.306.518.386.837a3.87 3.87 0 010 1.914c-.071.31-.191.59-.359.838-.168.239-.386.434-.651.585-.266.15-.59.226-.971.226a2.06 2.06 0 01-.957-.213 1.964 1.964 0 01-.664-.572 2.737 2.737 0 01-.386-.81c-.08-.31-.12-.625-.12-.944zm5.317 3.376v-9.49h-1.129v3.535h-.027a1.695 1.695 0 00-.465-.505 2.197 2.197 0 00-.572-.332 2.676 2.676 0 00-.611-.186 3.35 3.35 0 00-.572-.054c-.523 0-.984.098-1.382.293-.39.186-.718.443-.984.77a3.337 3.337 0 00-.585 1.13 5.012 5.012 0 00-.186 1.383c0 .487.067.948.2 1.382.132.435.327.816.584 1.144.266.327.594.589.984.784.399.195.864.292 1.396.292.478 0 .917-.084 1.316-.252.398-.169.691-.443.877-.824h.027v.93h1.129zM126.893 17.694c0-.417.053-.785.159-1.104.116-.328.271-.602.466-.824.195-.221.421-.39.678-.505a2.08 2.08 0 011.661 0c.266.115.496.284.691.505.195.222.346.496.452.824.116.32.173.687.173 1.104 0 .416-.057.788-.173 1.116-.106.32-.257.59-.452.811a2.01 2.01 0 01-.691.492 2.08 2.08 0 01-1.661 0 2.05 2.05 0 01-.678-.492 2.509 2.509 0 01-.466-.81 3.624 3.624 0 01-.159-1.117zm-1.196 0c0 .505.071.974.212 1.409.142.434.355.815.638 1.143.284.319.634.571 1.05.757.417.178.895.266 1.436.266.549 0 1.028-.088 1.436-.266a3.053 3.053 0 001.05-.757c.283-.328.496-.71.638-1.143.142-.435.212-.904.212-1.41 0-.505-.07-.974-.212-1.408a3.145 3.145 0 00-.638-1.143 2.975 2.975 0 00-1.05-.771c-.408-.187-.887-.28-1.436-.28-.541 0-1.019.093-1.436.28a2.975 2.975 0 00-1.05.77c-.283.32-.496.7-.638 1.144a4.537 4.537 0 00-.212 1.409zM133.967 14.25v6.873h1.13v-3.881c0-.31.04-.594.12-.851.088-.266.217-.496.385-.691.169-.195.377-.346.625-.452.257-.106.558-.16.904-.16.434 0 .775.124 1.023.373.249.248.373.584.373 1.01v4.652h1.13v-4.52c0-.372-.04-.708-.12-1.01-.071-.31-.2-.576-.386-.797a1.852 1.852 0 00-.731-.518c-.301-.125-.678-.187-1.13-.187-1.019 0-1.763.417-2.233 1.25h-.026v-1.09h-1.064zM147.153 14.25v-2.06h-1.13v2.06h-1.169v.998h1.169v4.373c0 .319.031.576.093.771a.956.956 0 00.28.452 1.2 1.2 0 00.505.226c.212.035.465.053.757.053h.864v-.997h-.518c-.177 0-.324-.004-.439-.013a.601.601 0 01-.252-.093.359.359 0 01-.133-.186 1.506 1.506 0 01-.027-.32v-4.266h1.369v-.997h-1.369zM150.043 11.632v9.491h1.13v-3.881c0-.31.04-.594.12-.851.088-.266.217-.496.385-.691.169-.195.377-.346.625-.452.257-.106.558-.16.904-.16.434 0 .775.124 1.023.373.249.248.373.584.373 1.01v4.652h1.129v-4.52a3.94 3.94 0 00-.119-1.01c-.071-.31-.2-.576-.386-.797a1.852 1.852 0 00-.731-.518c-.301-.125-.678-.187-1.13-.187-.203 0-.416.023-.638.067a2.734 2.734 0 00-.624.213 1.935 1.935 0 00-.532.358c-.16.142-.284.32-.372.532h-.027v-3.629h-1.13zM162.467 17.029h-3.948c.018-.266.076-.514.173-.744a2 2 0 01.399-.625c.168-.177.368-.315.598-.412.239-.106.505-.16.798-.16.283 0 .54.054.771.16.239.097.443.235.611.412.177.168.315.372.412.611.106.24.168.492.186.758zm1.09 1.914h-1.116c-.098.452-.302.789-.612 1.01-.301.222-.691.333-1.17.333a2.34 2.34 0 01-.97-.187 1.936 1.936 0 01-.678-.491 2.004 2.004 0 01-.385-.718 2.775 2.775 0 01-.107-.864h5.144a5.28 5.28 0 00-.119-1.316 3.642 3.642 0 00-.505-1.276 2.87 2.87 0 00-.971-.957c-.398-.257-.903-.386-1.515-.386-.47 0-.904.089-1.303.266a3.13 3.13 0 00-1.023.745 3.495 3.495 0 00-.665 1.13 4.147 4.147 0 00-.239 1.435 5.71 5.71 0 00.226 1.449c.142.443.35.824.625 1.143.274.319.611.567 1.01.744.408.178.886.266 1.436.266.779 0 1.426-.195 1.94-.585.514-.39.846-.97.997-1.74zM84.066 32.92c3.394 0 5.631 2.682 5.631 6.826 0 4.155-2.224 6.825-5.58 6.825a4.533 4.533 0 01-4.207-2.34h-.064v6.623h-2.745V33.06h2.657v2.224h.05a4.743 4.743 0 014.258-2.364zm14.718 0c3.393 0 5.63 2.682 5.63 6.826 0 4.155-2.224 6.825-5.58 6.825a4.533 4.533 0 01-4.207-2.34h-.063v6.623h-2.745V33.06h2.656v2.224h.05a4.743 4.743 0 014.259-2.364zm19.705-5.135c3.875 0 6.532 2.173 6.621 5.338h-2.771c-.165-1.83-1.678-2.935-3.889-2.935-2.212 0-3.724 1.117-3.724 2.744 0 1.297.966 2.06 3.33 2.644l2.02.496c3.763.89 5.327 2.402 5.327 5.084 0 3.431-2.733 5.58-7.08 5.58-4.068 0-6.814-2.098-6.991-5.415h2.809c.204 1.819 1.971 3.013 4.385 3.013 2.313 0 3.978-1.195 3.978-2.834 0-1.424-1.004-2.276-3.381-2.86l-2.377-.573c-3.368-.814-4.931-2.389-4.931-4.944 0-3.165 2.758-5.338 6.674-5.338zm23.195 5.11c3.877 0 6.343 2.643 6.343 6.85 0 4.22-2.453 6.852-6.343 6.852-3.889 0-6.342-2.632-6.342-6.851 0-4.207 2.478-6.851 6.342-6.851zm22.226 0c3.699 0 6.026 2.541 6.026 6.595v.94h-9.445v.167a3.484 3.484 0 003.598 3.787 3.027 3.027 0 003.088-1.88h2.606c-.369 2.427-2.733 4.093-5.758 4.093-3.89 0-6.304-2.607-6.304-6.788 0-4.194 2.427-6.914 6.189-6.914zm-32.584-3v3.164h2.543v2.174h-2.543v7.372c0 1.145.51 1.678 1.627 1.678.302-.005.604-.026.903-.063v2.16a7.53 7.53 0 01-1.524.127c-2.707 0-3.763-1.017-3.763-3.61v-7.664h-1.944v-2.174h1.944v-3.164h2.757zM68.775 28.09l6.622 18.34h-3.012l-1.677-4.956h-6.991l-1.679 4.957h-2.961l6.622-18.34h3.076zm87.413 4.83c.316-.002.631.033.94.102v2.567a3.833 3.833 0 00-1.233-.166 2.766 2.766 0 00-2.86 3.077v7.93h-2.745V33.06h2.618v2.275h.063a3.19 3.19 0 013.217-2.416zm-14.504 2.236c-2.224 0-3.545 1.717-3.545 4.59 0 2.897 1.321 4.588 3.545 4.588s3.546-1.69 3.546-4.588c0-2.886-1.322-4.59-3.546-4.59zm-58.342.103c-2.097 0-3.507 1.817-3.507 4.487 0 2.694 1.41 4.498 3.507 4.498 2.135 0 3.534-1.767 3.534-4.498 0-2.707-1.399-4.487-3.534-4.487zm14.718 0c-2.097 0-3.508 1.817-3.508 4.487 0 2.694 1.41 4.498 3.508 4.498 2.134 0 3.533-1.767 3.533-4.498 0-2.707-1.399-4.487-3.533-4.487zM67.25 31.14h-.076l-2.733 8.045h5.541l-2.731-8.045zm96.66 3.978a3.384 3.384 0 00-3.406 3.394h6.685a3.213 3.213 0 00-3.279-3.394z" />
  <rect width="190.523" height="58.523" x="0.738" y="0.738" stroke="#A6A6A6" strokeWidth="1.477" rx="8.123" />
</svg>
