<?xml version="1.0" standalone="no"?>
<!DOCTYPE svg PUBLIC "-//W3C//DTD SVG 20010904//EN"
 "http://www.w3.org/TR/2001/REC-SVG-20010904/DTD/svg10.dtd">
<svg version="1.0" xmlns="http://www.w3.org/2000/svg"
 width="1024.000000pt" height="1024.000000pt" viewBox="0 0 1024.000000 1024.000000"
 preserveAspectRatio="xMidYMid meet">
<metadata>
Created by potrace 1.14, written by Peter Selinger 2001-2017
</metadata>
<g transform="translate(0.000000,1024.000000) scale(0.100000,-0.100000)"
fill="#000000" stroke="none">
<path d="M5075 9897 c-4 -18 -167 -991 -364 -2162 l-357 -2130 435 -3 c239 -1
435 -1 437 1 3 3 724 4299 724 4315 0 9 -112 12 -435 12 l-434 0 -6 -33z"/>
<path d="M2840 9346 c0 -2 -315 -1901 -700 -4220 -385 -2319 -700 -4223 -700
-4231 0 -13 113 -15 893 -15 l893 0 250 1497 250 1498 651 3 c613 2 651 1 658
-15 3 -10 251 -681 551 -1492 299 -810 547 -1477 550 -1482 5 -8 1974 -14
1974 -5 0 2 -279 736 -620 1632 -341 896 -621 1635 -623 1643 -1 8 49 36 137
77 929 425 1520 1185 1731 2229 57 280 81 696 56 951 -104 1037 -802 1709
-1958 1884 -142 21 -300 36 -500 45 l-131 7 -6 -29 c-3 -15 -57 -338 -121
-718 -63 -379 -118 -702 -121 -716 -5 -26 -3 -27 53 -34 87 -11 268 -58 358
-94 97 -39 193 -95 269 -156 220 -180 330 -495 297 -857 -66 -751 -447 -1209
-1132 -1362 -255 -57 -285 -58 -1086 -63 -639 -4 -743 -3 -743 10 0 7 151 912
335 2010 184 1098 335 1999 335 2002 0 3 -405 5 -900 5 -495 0 -900 -2 -900
-4z"/>
<path d="M4017 3588 c-10 -40 -547 -3254 -547 -3271 0 -16 37 -17 435 -17 239
0 435 2 435 4 0 2 124 742 275 1643 151 902 275 1645 275 1651 0 9 -106 12
-434 12 l-434 0 -5 -22z"/>
</g>
</svg>
